<svg width="60" height="60" viewBox="0 0 60 60" fill="none" xmlns="http://www.w3.org/2000/svg">
<g opacity="0.46">
<path d="M29.9996 57.5C34.9724 57.5 39.7416 55.5246 43.2579 52.0083C46.7742 48.4919 48.7496 43.7228 48.7496 38.75C48.7496 36.585 48.1746 34.5075 47.4996 32.575C43.3321 36.6925 40.1671 38.75 37.9996 38.75C47.9871 21.25 42.4996 13.75 27.4996 3.75C28.7496 16.25 20.5096 21.935 17.1546 25.0925C14.4179 27.6667 12.5177 31.0037 11.7003 34.6708C10.8829 38.3379 11.1861 42.1661 12.5705 45.6588C13.9549 49.1516 16.3566 52.1479 19.4644 54.2593C22.5721 56.3706 26.2425 57.4997 29.9996 57.5V57.5ZM31.7746 13.0875C39.8771 19.9625 39.9171 25.305 33.6571 36.2725C31.7546 39.605 34.1621 43.75 37.9996 43.75C39.7196 43.75 41.4596 43.25 43.2971 42.2625C42.7525 44.32 41.7376 46.2229 40.3325 47.8214C38.9274 49.42 37.1704 50.6706 35.1998 51.4747C33.2292 52.2788 31.0989 52.6144 28.9765 52.4552C26.8542 52.296 24.7977 51.6463 22.9691 50.5573C21.1406 49.4682 19.5898 47.9695 18.4388 46.1792C17.2879 44.3889 16.5683 42.3559 16.3367 40.2402C16.105 38.1246 16.3677 35.984 17.104 33.9871C17.8402 31.9902 19.03 30.1914 20.5796 28.7325C20.8946 28.4375 22.4921 27.02 22.5621 26.9575C23.6221 26.0075 24.4946 25.165 25.3571 24.2425C28.4321 20.9475 30.6421 17.2925 31.7721 13.0875H31.7746Z" fill="white"/>
</g>
</svg>
