<svg width="70" height="70" viewBox="0 0 70 70" fill="none" xmlns="http://www.w3.org/2000/svg">
<g opacity="0.46">
<path fill-rule="evenodd" clip-rule="evenodd" d="M50.5555 11.6667C52.0428 11.6667 52.9795 13.2685 52.2501 14.5647L46.4017 24.9588L54.4381 33.1521C56.9355 35.6971 58.3333 39.1182 58.3333 42.6845V44.7223C58.3333 52.2381 52.238 58.3334 44.7222 58.3334H27.2222C19.705 58.3334 13.6111 52.2388 13.6111 44.7223V42.6845C13.6111 39.1182 15.0089 35.6971 17.5061 33.1523L25.5444 24.9588L19.6944 14.5649C18.9648 13.2687 19.9015 11.6667 21.3889 11.6667H50.5555ZM47.2303 15.5556H24.7145L29.6497 24.3241C30.0741 25.0782 29.9492 26.0219 29.3433 26.6396L20.282 35.8758C18.4982 37.6937 17.5 40.1368 17.5 42.6845V44.7223C17.5 50.0911 21.8529 54.4445 27.2222 54.4445H44.7222C50.0903 54.4445 54.4444 50.0904 54.4444 44.7223V42.6845C54.4444 40.1368 53.4462 37.6937 51.6621 35.8755L43.1744 27.2223H35.7326C34.7355 27.2223 33.9136 26.4717 33.8013 25.5046L33.7882 25.2779C33.7882 24.204 34.6588 23.3334 35.7326 23.3334H42.8516L47.2303 15.5556ZM22.3607 41.8056C23.4346 41.8056 24.3051 42.6762 24.3051 43.7501C24.3051 45.8981 26.046 47.639 28.194 47.639L28.4208 47.6521C29.3878 47.7644 30.1385 48.5862 30.1385 49.5834C30.1385 50.6573 29.2679 51.5279 28.194 51.5279C23.8982 51.5279 20.4163 48.0459 20.4163 43.7501C20.4163 42.6762 21.2868 41.8056 22.3607 41.8056Z" fill="white" fill-opacity="0.96"/>
</g>
</svg>
