<svg width="83" height="79" viewBox="0 0 83 79" fill="none" xmlns="http://www.w3.org/2000/svg">
<circle cx="25.4956" cy="25.4956" r="25.4956" transform="matrix(-0.866025 -0.5 0.866025 -0.5 40.5481 71.0737)" fill="#F6B34E"/>
<rect x="71.7732" y="45.6665" width="3.91637" height="11.2892" transform="rotate(179.988 71.7732 45.6665)" fill="#F6B34E"/>
<rect x="12.7791" y="45.5767" width="3.47395" height="11.8312" transform="rotate(-179.648 12.7791 45.5767)" fill="#F6B34E"/>
<circle cx="25.4956" cy="25.4956" r="25.4956" transform="matrix(-0.866025 -0.5 0.866025 -0.5 40.5947 59.2676)" fill="url(#paint0_linear_215_313)"/>
<path d="M36.3802 38.3402L23.8837 31.1253L30.1679 27.4972C34.1419 25.2028 37.6849 23.9312 40.7971 23.6824C43.9092 23.4336 46.806 24.0833 49.4872 25.6313C52.2642 27.2346 53.3894 28.9899 52.8627 30.8973C52.36 32.7908 50.2533 34.8088 46.5426 36.9511L44.7471 37.9878L46.7222 39.128L54.5863 34.5877L58.4287 36.806L50.5645 41.3464L53.5091 43.0465L49.0204 45.638L46.0758 43.9379L43.3467 45.5136L39.5043 43.2952L42.2335 41.7196L40.1866 40.5378L37.4575 42.1135L33.6511 39.9159L36.3802 38.3402ZM32.2865 30.7936L40.833 35.7279L42.9158 34.5255C45.0224 33.3092 46.2553 32.1965 46.6144 31.1875C46.9975 30.1647 46.387 29.1903 44.783 28.2643C43.2988 27.4073 41.7666 27.0894 40.1866 27.3106C38.5827 27.5179 36.6795 28.2574 34.477 29.529L32.2865 30.7936Z" fill="#D17E00"/>
<defs>
<linearGradient id="paint0_linear_215_313" x1="25.4956" y1="0" x2="25.4956" y2="50.9912" gradientUnits="userSpaceOnUse">
<stop stop-color="#F9D97B"/>
<stop offset="1" stop-color="#F6B34E"/>
</linearGradient>
</defs>
</svg>
