<svg width="70" height="70" viewBox="0 0 70 70" fill="none" xmlns="http://www.w3.org/2000/svg">
<g opacity="0.56">
<g opacity="0.46">
<path fill-rule="evenodd" clip-rule="evenodd" d="M27.5001 7.5C26.1193 7.5 25.0001 8.61929 25.0001 10C25.0001 11.3807 26.1193 12.5 27.5001 12.5H42.5001C43.8808 12.5 45.0001 11.3807 45.0001 10C45.0001 8.61929 43.8808 7.5 42.5001 7.5H27.5001ZM41.6972 21.332C37.9567 19.7826 33.7947 19.5781 29.9203 20.7534C26.0459 21.9287 22.6989 24.411 20.4496 27.7774C18.2002 31.1438 17.1877 35.186 17.5845 39.2152C17.9814 43.2444 19.763 47.0114 22.6259 49.8742C25.4888 52.7371 29.2558 54.5188 33.285 54.9156C37.3142 55.3125 41.3564 54.2999 44.7228 52.0506C48.0891 49.8013 50.5715 46.4543 51.7467 42.5799C52.922 38.7055 52.7176 34.5435 51.1682 30.8029C50.6398 29.5273 51.2456 28.0649 52.5212 27.5365C53.7968 27.0081 55.2592 27.6139 55.7876 28.8895C57.7796 33.6988 58.0425 39.0499 56.5314 44.0313C55.0204 49.0126 51.8288 53.3159 47.5006 56.208C43.1724 59.1 37.9753 60.4018 32.7949 59.8915C27.6145 59.3813 22.7712 57.0906 19.0904 53.4098C15.4095 49.7289 13.1188 44.8857 12.6086 39.7053C12.0984 34.5248 13.4002 29.3278 16.2922 24.9995C19.1842 20.6713 23.4875 17.4798 28.4689 15.9687C33.4502 14.4576 38.8014 14.7205 43.6107 16.7126C44.8863 17.241 45.492 18.7034 44.9637 19.979C44.4353 21.2546 42.9729 21.8604 41.6972 21.332ZM33.2321 39.2676C32.2557 38.2913 32.2557 36.7083 33.2321 35.732L50.9097 18.0544C51.886 17.078 53.469 17.078 54.4453 18.0544C55.4216 19.0307 55.4216 20.6136 54.4453 21.5899L36.7676 39.2676C35.7913 40.2439 34.2084 40.2439 33.2321 39.2676Z" fill="white" fill-opacity="0.96"/>
</g>
</g>
</svg>
